<svg viewBox="0 0 2000 1500" height="1500" width="2000" xmlns="http://www.w3.org/2000/svg" version="1.1"><g transform-origin="center" transform="scale(1, 1) rotate(0)"><rect x="0" y="0" width="2000" height="1500" fill="#434343ff"></rect><linearGradient id="linear-gradient-r0"><stop offset="0%" stop-color="#ffb400ff" stop-opacity="100%"></stop><stop offset="100%" stop-color="#ff5a00ff" stop-opacity="100%"></stop></linearGradient><filter id="shadow-r0" x="0" width="100%" y="-20%" height="150%"><feDropShadow dx="0" dy="0" stdDeviation="10" flood-color="#00000061"></feDropShadow></filter><path d="M0 0 0,808.5627360851504 C 100,807.8615280566737 300,795.5874333041721 500,805.056695942767 C 700,814.5259585813619 800,857.4316429207101 1000,855.9090492781252 C 1200,854.3864556355402 1300,817.338207026478 1500,797.4437277298421 C 1700,777.5492484332062 1900,764.6380677819252 2000,756.436652794946 L2000 1500 L0 1500Z" fill="none" stroke-linecap="round" filter="url(#shadow-r0)" stroke-width="1" style="transition: all 0.4s cubic-bezier(0.16, 1, 0.3, 1) 0s; fill: url(&quot;#linear-gradient-r0&quot;);"></path><path d="M0 0 0,912.3975887351359 C 100.00000000000001,923.924122157817 300,971.7558619768048 500,970.0302558485419 C 700,968.3046497202789 800,926.3166346300084 1000,903.769558093821 C 1200,881.2224815576337 1300,895.7188487743649 1500,857.2948731676055 C 1700,818.8708975608461 1900,740.7787186815403 2000,711.649680060024 L2000 1500 L0 1500Z" fill="none" stroke-linecap="round" filter="url(#shadow-r0)" stroke-width="1" style="transition: all 0.4s cubic-bezier(0.16, 1, 0.3, 1) 0s; fill: url(&quot;#linear-gradient-r0&quot;);"></path><path d="M0 0 0,1084.1514624189585 C 100,1069.3402476267268 300,1035.2950622335386 500,1010.0953884577999 C 700,984.8957146820612 800,1001.0975368654665 1000,958.1530935402649 C 1200,915.2086502150632 1300,818.7717631164318 1500,795.3731718317916 C 1700,771.9745805471515 1900,832.0027440600097 2000,841.1601371170642 L2000 1500 L0 1500Z" fill="none" stroke-linecap="round" filter="url(#shadow-r0)" stroke-width="1" style="transition: all 0.4s cubic-bezier(0.16, 1, 0.3, 1) 0s; fill: url(&quot;#linear-gradient-r0&quot;);"></path></g></svg>